<?xml version="1.0" encoding="UTF-8"?><svg id="icons" xmlns="http://www.w3.org/2000/svg" viewBox="0 0 58 58"><defs><style>.cls-1{stroke-width:2px;}.cls-1,.cls-2{fill:none;stroke:#000;stroke-linecap:round;stroke-linejoin:round;}.cls-2{stroke-width:2px;}</style></defs><g id="hair_dryer"><path class="cls-1" d="m23.4,49.49c-2.2.59-4.46-.72-5.06-2.92l-4.32-16.16,8.21-1.25,4.1,15.27c.59,2.2-.71,4.47-2.92,5.06Z"/><path class="cls-1" d="m39.14,13.32v11.67c0,.92-.67,1.7-1.58,1.84l-15.34,2.33-8.21,1.25c-6.09,0-11.01-4.93-11.01-11.01s4.93-11.02,11.01-11.02l23.52,3.11c.92.12,1.61.91,1.61,1.84Z"/><line class="cls-1" x1="35.3" y1="11.19" x2="35.3" y2="27.17"/><path class="cls-2" d="m55,20.33l-1-.59c-1.19-.7-2.85-1.03-4.37-.72-.19.04-.38.09-.57.14h0c-.19.06-.38.1-.57.14-1.52.31-3.17-.02-4.37-.72l-1-.59"/><path class="cls-2" d="m53.61,15.92l-.78-.46c-.76-.45-1.77-.72-2.77-.63-.34.03-.68.1-1,.19h0c-.32.1-.66.16-1,.19-1,.09-2.01-.18-2.77-.63l-.78-.46"/><path class="cls-2" d="m53.61,24.22l-.78-.46c-.76-.45-1.77-.72-2.77-.63-.34.03-.68.1-1,.19h0c-.32.1-.66.16-1,.19-1,.09-2.01-.18-2.77-.63l-.78-.46"/></g></svg>