<?xml version="1.0" encoding="UTF-8"?><svg id="icons" xmlns="http://www.w3.org/2000/svg" viewBox="0 0 58 58"><defs><style>.cls-1{fill:none;stroke:#000;stroke-linecap:round;stroke-miterlimit:10;stroke-width:2px;}</style></defs><path class="cls-1" d="m20.05,38.87h0c-1.86,2.56-5.63,6.19-11.48,4.94-8.77-1.88-.69-24.57,5.29-26.39,4.49-1.36,8.19.85,9.77,2.04.6.45,1.34.68,2.09.68h7.46c.75,0,1.49-.23,2.08-.68,1.58-1.19,5.29-3.4,9.78-2.04,5.99,1.81,14.06,24.51,5.29,26.39-5.92,1.27-9.71-2.48-11.54-5.04"/><line class="cls-1" x1="34.72" y1="36.57" x2="23.94" y2="36.57"/><path d="m19.74,27.24v1.55c0,.37-.3.68-.68.68h-1.95v1.95c0,.37-.3.68-.68.68h-1.55c-.37,0-.68-.3-.68-.68v-1.95h-1.95c-.37,0-.68-.3-.68-.68v-1.55c0-.37.3-.68.68-.68h1.95v-1.95c0-.37.3-.68.68-.68h1.55c.37,0,.68.3.68.68v1.95h1.95c.37,0,.68.3.68.68Z"/><path d="m45.63,30.34l-1.09,1.09c-.26.26-.69.26-.96,0l-1.38-1.38-1.38,1.38c-.26.26-.69.26-.96,0l-1.09-1.09c-.26-.26-.26-.69,0-.96l1.38-1.38-1.38-1.38c-.26-.26-.26-.69,0-.96l1.09-1.09c.26-.26.69-.26.96,0l1.38,1.38,1.38-1.38c.26-.26.69-.26.96,0l1.09,1.09c.26.26.26.69,0,.96l-1.38,1.38,1.38,1.38c.26.26.26.69,0,.96Z"/><circle class="cls-1" cx="21.31" cy="36.56" r="2.63"/><circle class="cls-1" cx="37.35" cy="36.56" r="2.63"/><line class="cls-1" x1="27.86" y1="31.91" x2="31.03" y2="31.91"/><path class="cls-1" d="m15.19,14.08s2.88-.55,5.32.5"/><path class="cls-1" d="m43.05,14.08s-2.88-.55-5.32.5"/></svg>