<?xml version="1.0" encoding="UTF-8"?><svg id="icons" xmlns="http://www.w3.org/2000/svg" viewBox="0 0 58 58"><defs><style>.cls-1{stroke-linejoin:round;}.cls-1,.cls-2{fill:none;stroke:#000;stroke-linecap:round;stroke-width:2px;}.cls-2{stroke-miterlimit:10;}</style></defs><g id="laptop"><path class="cls-2" d="m50,17v24H8v-24c0-2.21,1.79-4,4-4h34c1.86,0,3.43,1.27,3.87,3,.09.32.13.65.13,1Z"/><line class="cls-2" x1="28" y1="17" x2="30" y2="17"/><path class="cls-1" d="m2,41h54c0,2.21-1.79,4-4,4H6c-2.21,0-4-1.79-4-4h0Z"/></g><circle class="cls-2" cx="29" cy="29.08" r="4.92"/><path d="m29,30.42c-.74,0-1.34-.61-1.34-1.34s.61-1.34,1.34-1.34,1.34.61,1.34,1.34-.61,1.34-1.34,1.34Zm1.32-1.34h.01-.01Zm-1.32,0h.01-.01Z"/><line class="cls-2" x1="29" y1="36.46" x2="29" y2="34.35"/><line class="cls-2" x1="29" y1="23.81" x2="29" y2="21.7"/><line class="cls-2" x1="21.62" y1="29.08" x2="23.73" y2="29.08"/><line class="cls-2" x1="34.27" y1="29.08" x2="36.38" y2="29.08"/><line class="cls-2" x1="23.78" y1="34.3" x2="25.27" y2="32.81"/><line class="cls-2" x1="32.73" y1="25.35" x2="34.22" y2="23.86"/><line class="cls-2" x1="23.78" y1="23.86" x2="25.27" y2="25.35"/><line class="cls-2" x1="32.73" y1="32.81" x2="34.22" y2="34.3"/></svg>