<?xml version="1.0" encoding="UTF-8"?><svg id="icons" xmlns="http://www.w3.org/2000/svg" viewBox="0 0 58 58"><defs><style>.cls-1{fill:none;stroke:#000;stroke-linecap:round;stroke-miterlimit:10;stroke-width:2px;}</style></defs><g id="camera_1"><path class="cls-1" d="m16,17v-2c0-1.1-.9-2-2-2h-2c-1.1,0-2,.9-2,2v2h6Z"/><circle class="cls-1" cx="29" cy="32" r="11"/><circle class="cls-1" cx="29" cy="32" r="5"/><path class="cls-1" d="m52,21v22c0,2.21-1.79,4-4,4H10c-.35,0-.68-.04-1-.13-1.73-.44-3-2.01-3-3.87v-22c0-2.21,1.79-4,4-4h10l2.45-4.89c.34-.68,1.03-1.11,1.79-1.11h9.52c.76,0,1.45.43,1.79,1.11l.95,1.89,1.5,3h10c1.86,0,3.43,1.27,3.87,3,.09.32.13.65.13,1Z"/><line class="cls-1" x1="46" y1="21" x2="48" y2="21"/></g></svg>