<svg width="7" height="12" viewBox="0 0 7 12" fill="none" xmlns="http://www.w3.org/2000/svg">
<path opacity="0.6" d="M0.585026 0.192807L0.194026 0.585807C0.0728437 0.709855 0.00499988 0.87639 0.00499988 1.04981C0.00499988 1.22322 0.0728437 1.38976 0.194026 1.51381L4.62203 6.00081L0.189026 10.4868C0.0678438 10.6109 0 10.7774 0 10.9508C0 11.1242 0.0678438 11.2908 0.189026 11.4148L0.577026 11.8078C0.636869 11.8687 0.708231 11.917 0.78695 11.95C0.865669 11.983 0.950171 12 1.03553 12C1.12088 12 1.20538 11.983 1.2841 11.95C1.36282 11.917 1.43418 11.8687 1.49403 11.8078L6.79403 6.46281C6.91998 6.34133 6.99384 6.17569 7.00003 6.00081C6.99383 5.82494 6.91919 5.65845 6.79203 5.53681L1.50903 0.196807C1.44845 0.135973 1.37645 0.0877018 1.29717 0.0547647C1.21789 0.0218277 1.13288 0.00487232 1.04703 0.00487232C0.961174 0.00487232 0.876167 0.0218277 0.796885 0.0547647C0.717602 0.0877018 0.645605 0.135973 0.585026 0.196807V0.192807Z" fill="black"/>
</svg>
